<?xml version="1.0" standalone="no"?>
<!DOCTYPE svg PUBLIC "-//W3C//DTD SVG 20010904//EN"
 "http://www.w3.org/TR/2001/REC-SVG-20010904/DTD/svg10.dtd">
<svg version="1.0" xmlns="http://www.w3.org/2000/svg"
 width="1000.000000pt" height="1000.000000pt" viewBox="0 0 1000.000000 1000.000000"
 preserveAspectRatio="xMidYMid meet">

<g transform="translate(0.000000,1000.000000) scale(0.100000,-0.100000)"
fill="#000000" stroke="none">
<path d="M9828 9872 c-3 -7 -293 -66 -1063 -217 -289 -57 -1338 -264 -1595
-315 -186 -37 -1219 -241 -1640 -324 -179 -35 -535 -105 -793 -156 l-467 -93
2 -571 3 -571 160 0 160 0 3 452 2 452 38 9 c20 5 69 15 107 22 39 7 124 23
190 35 247 47 454 87 575 110 69 13 208 39 310 59 102 19 259 49 350 66 91 17
221 42 290 55 69 13 199 38 290 55 91 17 248 47 350 66 102 20 241 46 310 59
69 13 199 38 290 55 91 18 224 43 295 56 72 14 150 29 175 34 47 9 208 40 765
144 220 42 453 86 532 102 40 8 79 14 88 14 13 0 15 -450 15 -4480 0 -3063 -3
-4480 -10 -4480 -6 0 -66 11 -133 24 -67 13 -207 41 -312 61 -104 20 -255 49
-335 65 -80 16 -230 45 -335 65 -104 20 -233 45 -285 55 -52 11 -237 46 -410
80 -173 33 -337 65 -365 71 -27 5 -72 14 -100 19 -27 6 -95 19 -150 29 -55 11
-242 47 -415 81 -173 34 -358 69 -410 80 -52 10 -180 35 -285 55 -104 20 -233
45 -285 55 -52 10 -178 35 -280 54 -102 20 -207 40 -235 46 -85 17 -243 48
-415 81 -91 17 -173 35 -183 41 -16 8 -17 38 -17 446 0 240 0 443 0 450 0 10
-37 12 -167 10 l-168 -3 0 -580 0 -580 180 -36 c99 -20 290 -57 425 -83 135
-26 265 -51 290 -56 25 -5 187 -37 360 -70 173 -34 383 -74 465 -91 199 -38
202 -39 565 -109 173 -34 383 -74 465 -91 83 -16 173 -33 200 -38 225 -44 707
-138 825 -161 80 -15 197 -38 260 -50 63 -12 192 -37 285 -55 94 -19 301 -59
460 -90 160 -31 404 -78 543 -106 140 -27 260 -49 268 -49 12 0 14 691 14
4875 l0 4875 -24 0 c-13 0 -26 -3 -28 -8z"/>
<path d="M2270 7293 c-13 -27 -47 -102 -77 -168 -30 -66 -72 -158 -94 -203
-21 -46 -39 -86 -39 -87 0 -2 -25 -56 -55 -120 -30 -65 -55 -119 -55 -120 0
-2 -25 -56 -55 -120 -30 -65 -55 -119 -55 -120 0 -2 -25 -56 -55 -120 -30 -65
-55 -118 -55 -120 0 -2 -15 -36 -34 -77 -92 -198 -116 -250 -116 -253 0 -2
-25 -55 -55 -120 -30 -64 -55 -118 -55 -120 0 -1 -25 -55 -55 -120 -30 -64
-55 -118 -55 -120 0 -2 -27 -60 -60 -130 -33 -70 -60 -128 -60 -130 0 -3 -23
-54 -116 -253 -19 -41 -34 -75 -34 -77 0 -2 -25 -55 -55 -120 -30 -64 -55
-118 -55 -120 0 -1 -25 -55 -55 -120 -30 -64 -55 -118 -55 -119 0 -2 -20 -46
-44 -97 -24 -52 -64 -139 -89 -194 -25 -55 -66 -144 -91 -198 -25 -55 -46
-100 -46 -102 0 -2 -25 -55 -55 -120 -30 -64 -55 -118 -55 -120 0 -1 -25 -55
-55 -120 -30 -64 -55 -118 -55 -119 0 -2 -20 -46 -44 -97 -24 -52 -76 -166
-116 -254 -39 -88 -76 -164 -81 -170 -5 -5 -9 -13 -9 -17 0 -5 201 -7 446 -6
l446 3 135 300 c73 165 144 323 157 350 13 28 33 74 46 103 l22 52 989 0 c544
0 989 2 989 4 0 2 -20 46 -44 97 -24 52 -73 159 -109 239 -36 80 -83 183 -104
230 -22 47 -55 118 -73 158 l-33 72 -623 0 c-343 0 -624 2 -624 4 0 3 13 33
29 68 32 70 52 113 142 316 12 26 35 76 51 112 17 36 70 153 118 260 48 107
104 230 124 273 20 43 36 80 36 82 0 2 20 46 45 99 25 53 45 98 45 101 0 2 23
51 50 110 28 59 50 108 50 110 0 2 17 41 38 87 22 46 74 161 117 256 72 160
81 174 119 197 32 19 43 22 52 12 6 -6 163 -358 349 -782 185 -423 346 -788
356 -810 10 -22 116 -265 237 -540 121 -275 228 -520 239 -545 12 -25 35 -79
53 -120 18 -41 43 -97 55 -125 36 -81 91 -204 125 -285 31 -71 48 -110 105
-235 14 -31 25 -57 25 -60 0 -5 67 -155 79 -175 7 -13 69 -15 450 -18 242 -1
441 1 441 5 0 6 -249 563 -332 741 -21 46 -38 85 -38 87 0 1 -18 42 -40 89
-22 47 -40 87 -40 90 0 2 -21 48 -46 102 -25 55 -51 113 -59 129 -35 80 -70
156 -96 213 -16 35 -29 65 -29 67 0 2 -20 46 -45 99 -25 53 -45 98 -45 101 0
2 -22 51 -50 110 -27 59 -50 108 -50 110 0 3 -20 48 -45 101 -25 53 -45 98
-45 100 0 2 -20 47 -45 100 -25 53 -45 98 -45 100 0 2 -20 47 -45 100 -25 53
-45 97 -45 99 0 4 -33 76 -96 213 -19 41 -34 75 -34 77 0 2 -16 39 -36 82 -20
43 -47 103 -61 133 -13 30 -36 82 -51 114 -15 33 -178 395 -362 805 l-336 746
-436 3 -436 2 -22 -47z"/>
<path d="M5470 6920 l0 -420 1075 0 c685 0 1075 -4 1075 -10 0 -5 -33 -69 -73
-142 -41 -73 -93 -169 -117 -213 -23 -44 -46 -84 -50 -90 -4 -5 -29 -50 -55
-100 -26 -49 -69 -128 -95 -175 -26 -47 -66 -121 -90 -165 -23 -44 -46 -84
-50 -90 -4 -5 -29 -50 -55 -100 -27 -49 -94 -173 -150 -275 -56 -102 -121
-221 -145 -265 -24 -44 -89 -163 -145 -265 -56 -102 -121 -221 -145 -265 -23
-44 -46 -84 -50 -90 -4 -5 -29 -50 -55 -100 -27 -49 -94 -173 -150 -275 -56
-102 -121 -221 -145 -265 -24 -44 -89 -163 -145 -265 -56 -102 -121 -221 -145
-265 -23 -44 -46 -84 -50 -90 -4 -5 -29 -50 -55 -100 -26 -49 -70 -129 -97
-178 -26 -48 -48 -89 -48 -92 0 -3 204 -4 453 -3 l452 3 133 240 c73 132 148
267 167 300 117 212 402 729 427 775 17 30 63 114 103 185 60 107 230 415 365
660 15 28 84 152 154 277 69 126 142 258 162 295 20 38 54 97 74 133 20 36 54
97 75 135 21 39 94 171 163 295 141 254 127 229 331 599 126 229 151 280 151
315 0 40 -5 46 -228 274 l-227 233 -1397 -1 -1398 0 0 -420z"/>
</g>
</svg>
